<svg id="Layer_1" data-name="Layer 1" xmlns="http://www.w3.org/2000/svg" viewBox="0 0 332.97 672.65"><path d="M429,750.32l-8.37-.54V631.52h23.09C448.61,654.8,456,677.43,459.62,701c.6-3.68,1-7.41,1.82-11,2.61-11.41,5.35-22.79,8.09-34.17,1.79-7.45,3.7-14.89,5.49-22.35.39-1.62,1.06-2.22,2.87-2.17,6.12.17,12.25.1,18.38.13.65,0,1.3.06,2.08.1V749.89H481.47v-77c-1,4.55-2,9.61-3.19,14.62-3.56,14.78-7.21,29.54-10.77,44.33-.32,1.31-1,1.61-2.19,1.59-3.89,0-7.77-.06-11.66.07-1.43,0-1.92-.55-2.22-1.81q-6.4-27-12.85-53.93c-.34-1.43-.53-2.9-1-4.34v76.3l-7.29.6Zm-45.28,0,8.64-.57c-.17-.78-.28-1.5-.47-2.2q-7.06-26.12-14.17-52.22c-.33-1.2-.45-2,.9-2.71,6.09-3.36,9.1-8.64,9.13-15.58,0-9.19-.23-18.39,0-27.58.29-10-8.78-18.38-18.2-18.14-9.26.24-18.52,0-27.79,0h-7.64V749.85h18.71V697.71h2.47c3.95,0,3.91,0,4.9,3.8,4.07,15.58,8.19,31.15,12.22,46.74.37,1.4,1,1.7,2.33,1.71,2.08,0,4.16.23,6.24.36ZM366.22,648.77c1.78,0,2.55,1.31,2.56,2.84,0,8.52,0,17,0,25.56a2.6,2.6,0,0,1-2.27,2.84,24.32,24.32,0,0,1-4.61.68c-2.9,0-5.8-.33-8.87-.53V648.75C357.46,648.75,361.84,648.72,366.22,648.77Zm186,101.55,7.63-.6v-2.54c0-16,0-31.95.07-47.93a16.85,16.85,0,0,1,.8-5q9.28-29,18.68-58.06c.37-1.12.71-2.25,1.06-3.38v-1.35c-5.3,0-10.6,0-15.9-.13-1.67,0-2.33.52-2.76,2.1-2.83,10.5-5.76,21-8.65,31.47q-1.32,4.78-2.63,9.56a34.8,34.8,0,0,1-1.92-6.07q-4.68-17.61-9.46-35.2c-.18-.66-1-1.62-1.58-1.63-5.67-.12-11.33-.08-17.23-.08.28,1,.48,1.75.73,2.52,6.1,19.1,12.26,38.18,18.24,57.32a34.75,34.75,0,0,1,1.65,9.85c.16,15.4.07,30.79.06,46.19v2.35l6.73.64ZM441.64,616.08q67.22-24.87,134.45-49.71a3,3,0,0,0,2.34-3.34q0-102.18.05-204.34,0-77.51,0-155a4,4,0,0,0-1.47-3.48q-29.24-24.39-58.41-48.88l-86.9-72.84a8.86,8.86,0,0,0-1.23-.69V620.14C434.24,618.77,438,617.45,441.64,616.08ZM397,77.68c-.61.47-1,.71-1.29,1q-18,15.14-36,30.26-54.36,45.54-108.75,91a4.15,4.15,0,0,0-1.82,3.53q.08,180.12,0,360.24a7,7,0,0,1,0,1.12c-.22,1.28.38,1.83,1.55,2.24,6.32,2.24,12.61,4.56,18.91,6.85l111.24,40.33q8.07,2.93,16.17,5.81ZM247.52,749.84H267c.85-6.12,1.66-12,2.5-18,5.41,0,10.63.08,15.85,0,1.82,0,2.19.67,2.39,2.31.65,5.23,1.51,10.44,2.32,15.84h17.4c.58,0,1.16-.09,2.08-.16q-10.5-59.31-20.95-118.32H268.45C261.47,671,254.51,710.28,247.52,749.84Zm24.57-35.45c2.18-15.6,4.35-31.06,6.46-46.07,2,15,4.15,30.38,6.3,46.07Z" transform="translate(-247.52 -77.68)"/></svg>